# xmcd
#
# Track frame offsets:
#  150
#  14642
#  27066
#  42150
#  62676
#  79954
#  92936
#  106701
#  119526
#  133098
#  146056
#  158351
#  171705
#  183853
#  195778
#  208874
#  219929
#  233133
#  247988
#  262235
#  276824
#  291467
#  306884
#  321765
#  335398
#
# Disc length: 4649 seconds
#
# Revision: 0
# Processed by: cddbd v1.5.1PL2 Copyright (c) Steve Scherf et al.
# Submitted via: Collectorz.com_Music_Collector 6.9
#
DISCID=71122719
DTITLE=Various Artist - Never Let The Same Bee Sting You Twice [CD1]
DYEAR=2005
DGENRE=Blues - Blues Acoustic - Gospel
TTITLE0=Richard "Rabbit" Brown - James Alley
TTITLE1=Richard "Rabbit" Brown - Never Let The Same Bee Sting You Twice
TTITLE2=Richard "Rabbit" Brown - I'm Not Jealous
TTITLE3=Richard "Rabbit" Brown - Mystery Of The Dunbar's Child
TTITLE4=Richard "Rabbit" Brown - Sinking of the Titanic
TTITLE5=Papa Harvey Hull - Long "Cleve" Reed - Gang Of Brown Skin Women
TTITLE6=Papa Harvey Hull - Long "Cleve" Reed - Hey! Lawdy Mama.- The France Blues
TTITLE7=Papa Harvey Hull - Long "Cleve" Reed - Two Little Tommie Blues
TTITLE8=Papa Harvey Hull - Long "Cleve" Reed - Don't You Leave Me Here
TTITLE9=Big Boy Cleveland - Quill Blues
TTITLE10=Big Boy Cleveland - Goin' To Leave You Blues
TTITLE11=Long "Cleve" Reed - Little Harvey Hull - The Down Home Boys - Mama You Don't Know How
TTITLE12=Long "Cleve" Reed - Little Harvey Hull - The Down Home Boys - Original Stack O' Lee Blues
TTITLE13=William and Versey Smith - I Believe I'll Go Back Home
TTITLE14=William and Versey Smith - When That Great Ship Went Down
TTITLE15=William and Versey Smith - Everybody Help The Boys Come Home
TTITLE16=William and Versey Smith - Sinner, You'll Need King Jesus
TTITLE17=Luke Jordan - Church Bells Blues (take 1)
TTITLE18=Luke Jordan - Church Bells Blues (take 2)
TTITLE19=Luke Jordan - Pick Poor Robin Clean (take 1)
TTITLE20=Luke Jordan - Pick Poor Robin Clean (take 2)
TTITLE21=Luke Jordan - Cocaine Blues
TTITLE22=Luke Jordan - Traveling Coon
TTITLE23=Luke Jordan - My Gal's Done Quit Me
TTITLE24=Luke Jordan - Won't You Be Kind?
EXTD=
EXTT0=
EXTT1=
EXTT2=
EXTT3=
EXTT4=
EXTT5=
EXTT6=
EXTT7=
EXTT8=
EXTT9=
EXTT10=
EXTT11=
EXTT12=
EXTT13=
EXTT14=
EXTT15=
EXTT16=
EXTT17=
EXTT18=
EXTT19=
EXTT20=
EXTT21=
EXTT22=
EXTT23=
EXTT24=
PLAYORDER=
